<?xml version="1.0" encoding="UTF-8"?><svg id="Layer_1" xmlns="http://www.w3.org/2000/svg" width="440" height="140" viewBox="0 0 440 140"><defs><style>.cls-1{opacity:.94;}.cls-1,.cls-2{stroke-width:0px;}</style></defs><path class="cls-2" d="m18.52,81.91H3.52L3.98,4.16h22.46c6.1,0,10.76,1.58,14,4.75,3.24,3.17,4.86,7.63,4.86,13.39s-1.62,10.22-4.86,13.39c-3.24,3.17-7.91,4.75-14,4.75h-8.35l.43,41.46Zm-.43-52.84h4.68c5.18,0,7.78-2.26,7.78-6.77s-2.59-6.77-7.78-6.77h-4.68v13.54Z"/><path class="cls-2" d="m50.35,31.3c0-4.03.74-7.79,2.23-11.27,1.49-3.48,3.55-6.52,6.19-9.11,2.64-2.59,5.8-4.62,9.47-6.08,3.67-1.46,7.72-2.2,12.13-2.2s8.4.73,12.1,2.2c3.7,1.46,6.88,3.49,9.54,6.08s4.74,5.63,6.23,9.11c1.49,3.48,2.23,7.24,2.23,11.27s-.74,7.79-2.23,11.27c-1.49,3.48-3.56,6.52-6.23,9.11-2.66,2.59-5.84,4.62-9.54,6.08-3.7,1.46-7.73,2.2-12.1,2.2s-8.46-.73-12.13-2.2c-3.67-1.46-6.83-3.49-9.47-6.08-2.64-2.59-4.7-5.63-6.19-9.11-1.49-3.48-2.23-7.24-2.23-11.27Zm14.76,0c0,2.16.41,4.15,1.22,5.98.82,1.82,1.92,3.41,3.31,4.75,1.39,1.34,3.01,2.39,4.86,3.13,1.85.75,3.8,1.12,5.87,1.12s4.02-.37,5.87-1.12c1.85-.74,3.48-1.79,4.9-3.13,1.42-1.34,2.53-2.93,3.35-4.75.82-1.82,1.22-3.82,1.22-5.98s-.41-4.15-1.22-5.98c-.82-1.82-1.93-3.41-3.35-4.75-1.42-1.34-3.05-2.39-4.9-3.13-1.85-.74-3.8-1.12-5.87-1.12s-4.02.37-5.87,1.12c-1.85.74-3.47,1.79-4.86,3.13-1.39,1.34-2.5,2.93-3.31,4.75-.82,1.82-1.22,3.82-1.22,5.98Z"/><path class="cls-2" d="m164.54,58.44h-17.57l-13.46-20.88v20.88h-14.11V4.16h21.96c3.02,0,5.66.44,7.92,1.33,2.26.89,4.12,2.1,5.58,3.64,1.46,1.54,2.57,3.31,3.31,5.33.74,2.02,1.12,4.18,1.12,6.48,0,4.13-1,7.48-2.99,10.04-1.99,2.57-4.93,4.31-8.82,5.22l17.06,22.25Zm-31.03-30.02h2.66c2.78,0,4.92-.58,6.41-1.73,1.49-1.15,2.23-2.81,2.23-4.97s-.74-3.82-2.23-4.97c-1.49-1.15-3.62-1.73-6.41-1.73h-2.66v13.39Z"/><path class="cls-2" d="m191.1,16.11v42.34h-14.11V16.11h-11.59V4.16h37.3v11.95h-11.59Z"/><path class="cls-2" d="m240.06,16.11h-16.99v9.07h15.48v11.95h-15.48v21.31h-14.11V4.16h31.1v11.95Z"/><path class="cls-2" d="m245.97,31.3c0-4.03.74-7.79,2.23-11.27,1.49-3.48,3.55-6.52,6.19-9.11,2.64-2.59,5.8-4.62,9.47-6.08,3.67-1.46,7.72-2.2,12.13-2.2s8.4.73,12.1,2.2c3.7,1.46,6.88,3.49,9.54,6.08s4.74,5.63,6.23,9.11c1.49,3.48,2.23,7.24,2.23,11.27s-.74,7.79-2.23,11.27c-1.49,3.48-3.56,6.52-6.23,9.11-2.66,2.59-5.84,4.62-9.54,6.08-3.7,1.46-7.73,2.2-12.1,2.2s-8.46-.73-12.13-2.2c-3.67-1.46-6.83-3.49-9.47-6.08-2.64-2.59-4.7-5.63-6.19-9.11-1.49-3.48-2.23-7.24-2.23-11.27Zm14.76,0c0,2.16.41,4.15,1.22,5.98.82,1.82,1.92,3.41,3.31,4.75,1.39,1.34,3.01,2.39,4.86,3.13,1.85.75,3.8,1.12,5.87,1.12s4.02-.37,5.87-1.12c1.85-.74,3.48-1.79,4.9-3.13,1.42-1.34,2.53-2.93,3.35-4.75.82-1.82,1.22-3.82,1.22-5.98s-.41-4.15-1.22-5.98c-.82-1.82-1.93-3.41-3.35-4.75-1.42-1.34-3.05-2.39-4.9-3.13-1.85-.74-3.8-1.12-5.87-1.12s-4.02.37-5.87,1.12c-1.85.74-3.47,1.79-4.86,3.13-1.39,1.34-2.5,2.93-3.31,4.75-.82,1.82-1.22,3.82-1.22,5.98Z"/><path class="cls-2" d="m329.13,4.16v42.34h16.92v11.95h-31.03V4.16h14.11Z"/><path class="cls-2" d="m367.43,4.16v54.29h-14.11V4.16h14.11Z"/><path class="cls-2" d="m376.36,33.3c0-4.03.74-7.79,2.23-11.27,1.49-3.48,3.55-6.52,6.19-9.11,2.64-2.59,5.8-4.62,9.47-6.08,3.67-1.46,7.72-2.2,12.13-2.2s8.4.73,12.1,2.2c3.7,1.46,6.88,3.49,9.54,6.08s4.74,5.63,6.23,9.11c1.49,3.48,2.23,7.24,2.23,11.27s-.75,7.79-2.23,11.27c-1.49,3.48-3.56,6.52-6.23,9.11-2.66,2.59-5.84,4.62-9.54,6.08-3.7,1.46-7.73,2.2-12.1,2.2s-8.46-.73-12.13-2.2c-3.67-1.46-6.83-3.49-9.47-6.08-2.64-2.59-4.71-5.63-6.19-9.11-1.49-3.48-2.23-7.24-2.23-11.27Zm14.76,0c0,2.16.41,4.15,1.22,5.98.82,1.82,1.92,3.41,3.31,4.75,1.39,1.34,3.01,2.39,4.86,3.13,1.85.75,3.8,1.12,5.87,1.12s4.02-.37,5.87-1.12c1.85-.74,3.48-1.79,4.9-3.13,1.42-1.34,2.53-2.93,3.35-4.75.82-1.82,1.22-3.82,1.22-5.98s-.41-4.15-1.22-5.98c-.82-1.82-1.93-3.41-3.35-4.75-1.42-1.34-3.05-2.39-4.9-3.13-1.85-.74-3.8-1.12-5.87-1.12s-4.02.37-5.87,1.12c-1.85.74-3.47,1.79-4.86,3.13-1.39,1.34-2.5,2.93-3.31,4.75-.82,1.82-1.22,3.82-1.22,5.98Z"/><path class="cls-1" d="m65.87,91.51h-16.78v9.07h15.84v11.95h-15.84v9.36h16.78v11.95h-30.89v-54.29h30.89v11.95Z"/><path class="cls-1" d="m89.13,101.95l17.21-22.39h17.42l-21.53,25.7,23.54,28.58h-18.29l-18.36-23.54v23.54h-14.11v-54.29h14.11v22.39Z"/><path class="cls-1" d="m160.85,95.45c-1.54-1.25-3.07-2.17-4.61-2.77-1.54-.6-3.02-.9-4.46-.9-1.82,0-3.31.43-4.46,1.3-1.15.86-1.73,1.99-1.73,3.38,0,.96.29,1.75.86,2.38.58.62,1.33,1.16,2.27,1.62.94.46,1.99.85,3.17,1.19,1.18.34,2.34.7,3.49,1.08,4.61,1.54,7.98,3.59,10.12,6.16,2.14,2.57,3.2,5.92,3.2,10.04,0,2.78-.47,5.3-1.4,7.56-.94,2.26-2.3,4.19-4.1,5.8-1.8,1.61-4.01,2.86-6.62,3.74-2.62.89-5.58,1.33-8.89,1.33-6.86,0-13.22-2.04-19.08-6.12l6.05-11.38c2.11,1.87,4.2,3.26,6.26,4.18,2.06.91,4.1,1.37,6.12,1.37,2.3,0,4.02-.53,5.15-1.58,1.13-1.06,1.69-2.26,1.69-3.6,0-.82-.14-1.52-.43-2.12-.29-.6-.77-1.15-1.44-1.66-.67-.5-1.55-.97-2.63-1.4-1.08-.43-2.39-.91-3.92-1.44-1.82-.58-3.61-1.21-5.36-1.91-1.75-.7-3.31-1.62-4.68-2.77-1.37-1.15-2.47-2.6-3.31-4.36-.84-1.75-1.26-3.97-1.26-6.66s.44-5.12,1.33-7.31c.89-2.18,2.14-4.06,3.74-5.62,1.61-1.56,3.58-2.77,5.9-3.64,2.33-.86,4.93-1.3,7.81-1.3,2.69,0,5.5.37,8.42,1.12,2.93.74,5.74,1.84,8.42,3.28l-5.62,11.02Z"/><path class="cls-1" d="m209.81,126.41h-20.16l-3.24,9.43h-15.05l20.66-54.29h15.41l20.66,54.29h-15.05l-3.24-9.43Zm-3.74-10.73l-6.34-18.07-6.34,18.07h12.67Z"/><path class="cls-1" d="m232.84,135.84l9.22-54.29h13.97l10.87,28.94,10.8-28.94h13.97l9.22,54.29h-14.04l-4.68-31.25-12.82,31.25h-5.62l-12.17-31.25-4.68,31.25h-14.04Z"/><path class="cls-1" d="m338.7,93.51h-16.78v9.07h15.84v11.95h-15.84v9.36h16.78v11.95h-30.89v-54.29h30.89v11.95Z"/><path class="cls-1" d="m345.85,135.84v-54.29h14.11l26.06,33.19v-33.19h14.04v54.29h-14.04l-26.06-33.19v33.19h-14.11Z"/></svg>