<?xml version="1.0" encoding="UTF-8"?><svg id="production" xmlns="http://www.w3.org/2000/svg" width="160" height="15" viewBox="0 0 160 15"><defs><style>.cls-1{stroke-width:0px;}</style></defs><path class="cls-1" d="m4.97,7.24v3.76h-1.37V1.74h1.56c.76,0,1.34.05,1.73.16.39.11.74.31,1.04.61.52.52.78,1.18.78,1.97,0,.85-.28,1.52-.84,2.02-.56.5-1.31.74-2.26.74h-.64Zm0-1.3h.51c1.26,0,1.89-.49,1.89-1.48s-.65-1.43-1.95-1.43h-.45v2.92Z"/><path class="cls-1" d="m11.49,1.74v7.95h2.68v1.31h-4.05V1.74h1.37Z"/><path class="cls-1" d="m21.32,8.76h-3.9l-1.01,2.25h-1.48L19.43,1.16l4.34,9.84h-1.5l-.96-2.25Zm-.56-1.31l-1.35-3.15-1.42,3.15h2.76Z"/><path class="cls-1" d="m24.6,11.01l1.92-9.96,3.12,7.2,3.24-7.2,1.72,9.96h-1.41l-.88-5.59-2.69,6.02-2.62-6.02-.98,5.6h-1.42Z"/><path class="cls-1" d="m36.53,11.01V1.74h1.37c.61,0,1.09.05,1.46.14.37.1.67.26.93.49.25.24.46.53.61.88.15.36.23.72.23,1.08,0,.66-.25,1.23-.75,1.69.48.17.87.46,1.14.88.28.42.42.9.42,1.45,0,.72-.25,1.34-.75,1.84-.3.31-.64.52-1.02.64-.41.12-.93.17-1.55.17h-2.08Zm1.37-5.28h.43c.51,0,.89-.12,1.12-.35.24-.23.36-.57.36-1.02s-.12-.77-.37-.99c-.24-.23-.6-.34-1.06-.34h-.48v2.69Zm0,3.97h.85c.62,0,1.08-.12,1.37-.37.31-.27.46-.61.46-1.02s-.15-.74-.44-1.01c-.29-.27-.8-.4-1.54-.4h-.7v2.8Z"/><path class="cls-1" d="m48.69,3.06h-3.65v2.23h3.54v1.31h-3.54v3.1h3.65v1.31h-5.02V1.74h5.02v1.31Z"/><path class="cls-1" d="m57.22,2.24v1.66c-.79-.68-1.62-1.01-2.46-1.01-.94,0-1.72.34-2.36,1.03-.64.68-.97,1.51-.97,2.5s.32,1.79.97,2.46c.64.67,1.43,1,2.37,1,.48,0,.89-.08,1.23-.24.19-.08.38-.19.59-.32.2-.14.42-.3.64-.49v1.69c-.79.45-1.61.68-2.48.68-1.3,0-2.41-.46-3.33-1.39-.92-.93-1.37-2.06-1.37-3.37,0-1.18.38-2.23,1.15-3.16.94-1.13,2.16-1.7,3.66-1.7.82,0,1.61.23,2.37.68Z"/><path class="cls-1" d="m60.58,5.37h3.93V1.74h1.37v9.26h-1.37v-4.33h-3.93v4.33h-1.37V1.74h1.37v3.62Z"/><path class="cls-1" d="m72.8,10.77h-2.37V1.51h3.77c1.02,0,1.8.27,2.35.81.54.54.82,1.3.82,2.29s-.27,1.74-.82,2.28c-.54.54-1.33.81-2.35.81h-1.4v3.07Zm0-5.01h.79c.87,0,1.3-.38,1.3-1.15s-.43-1.15-1.3-1.15h-.79v2.31Z"/><path class="cls-1" d="m86.19,10.77h-2.95l-2.26-3.56v3.56h-2.37V1.51h3.68c.51,0,.95.08,1.33.23s.69.36.94.62c.25.26.43.57.56.91.12.34.19.71.19,1.11,0,.7-.17,1.28-.5,1.71-.33.44-.83.74-1.48.89l2.86,3.8Zm-5.2-5.12h.45c.47,0,.83-.1,1.07-.29.25-.2.37-.48.37-.85s-.12-.65-.37-.85c-.25-.2-.61-.29-1.07-.29h-.45v2.28Z"/><path class="cls-1" d="m86.6,6.14c0-.69.12-1.33.38-1.92.25-.59.6-1.11,1.04-1.55.44-.44.97-.79,1.59-1.04.62-.25,1.29-.37,2.03-.37s1.41.12,2.03.37c.62.25,1.15.6,1.6,1.04.45.44.79.96,1.04,1.55.25.59.37,1.23.37,1.92s-.12,1.33-.37,1.92c-.25.59-.6,1.11-1.04,1.55-.45.44-.98.79-1.6,1.04-.62.25-1.3.37-2.03.37s-1.42-.12-2.03-.37-1.15-.6-1.59-1.04-.79-.96-1.04-1.55c-.25-.59-.38-1.23-.38-1.92Zm2.48,0c0,.37.07.71.21,1.02.14.31.32.58.56.81.23.23.5.41.82.53.31.13.64.19.98.19s.67-.06.98-.19.58-.31.82-.53c.24-.23.42-.5.56-.81.14-.31.21-.65.21-1.02s-.07-.71-.21-1.02c-.14-.31-.32-.58-.56-.81s-.51-.41-.82-.53c-.31-.13-.64-.19-.98-.19s-.67.06-.98.19c-.31.13-.58.31-.82.53s-.42.5-.56.81c-.14.31-.21.65-.21,1.02Z"/><path class="cls-1" d="m98.18,1.51h3.5c.62,0,1.2.13,1.74.38.54.25,1.02.59,1.42,1.01s.73.91.96,1.47c.23.56.35,1.15.35,1.76s-.12,1.19-.34,1.75-.55,1.05-.95,1.48c-.41.43-.88.77-1.42,1.02-.54.25-1.13.38-1.76.38h-3.5V1.51Zm2.37,7.22h.54c.41,0,.78-.07,1.1-.2.32-.13.59-.31.81-.54.22-.23.39-.5.51-.82.12-.32.17-.66.17-1.04s-.06-.71-.18-1.03c-.12-.32-.29-.59-.51-.82-.22-.23-.49-.41-.82-.54-.32-.13-.68-.2-1.09-.2h-.54v5.18Z"/><path class="cls-1" d="m110.03,1.51v5.04c0,.27,0,.55.03.83.02.28.08.54.18.77.1.23.26.42.48.56.22.14.52.21.92.21s.7-.07.91-.21c.21-.14.37-.33.48-.56.1-.23.17-.49.19-.77.02-.28.03-.56.03-.83V1.51h2.35v5.37c0,1.44-.32,2.49-.97,3.16-.65.66-1.64,1-2.99,1s-2.34-.33-3-1c-.65-.66-.98-1.72-.98-3.16V1.51h2.37Z"/><path class="cls-1" d="m124.07,4.61c-.55-.68-1.22-1.02-2.03-1.02-.35,0-.68.07-.98.2s-.56.31-.78.53c-.22.23-.39.49-.51.8-.12.31-.19.65-.19,1.01s.06.71.19,1.02c.12.31.3.58.52.81.22.23.48.41.78.54.3.13.62.2.97.2.76,0,1.44-.33,2.04-.98v2.85l-.24.09c-.36.13-.7.23-1.01.29-.31.06-.62.09-.93.09-.63,0-1.23-.12-1.81-.36-.58-.24-1.08-.58-1.52-1.02-.44-.44-.79-.96-1.06-1.56-.27-.6-.4-1.26-.4-1.97s.13-1.37.39-1.96c.26-.59.61-1.11,1.05-1.54.44-.43.95-.77,1.53-1.01.58-.24,1.19-.36,1.82-.36.36,0,.72.04,1.07.12.35.08.72.2,1.11.36v2.88Z"/><path class="cls-1" d="m129.02,3.55v7.22h-2.37V3.55h-1.94V1.51h6.25v2.04h-1.94Z"/><path class="cls-1" d="m134.38,1.51v9.26h-2.37V1.51h2.37Z"/><path class="cls-1" d="m135.87,6.14c0-.69.12-1.33.38-1.92.25-.59.6-1.11,1.04-1.55.44-.44.97-.79,1.59-1.04.62-.25,1.29-.37,2.03-.37s1.41.12,2.03.37c.62.25,1.15.6,1.6,1.04.45.44.79.96,1.04,1.55.25.59.37,1.23.37,1.92s-.12,1.33-.37,1.92c-.25.59-.6,1.11-1.04,1.55-.45.44-.98.79-1.6,1.04-.62.25-1.3.37-2.03.37s-1.42-.12-2.03-.37-1.15-.6-1.59-1.04-.79-.96-1.04-1.55c-.25-.59-.38-1.23-.38-1.92Zm2.48,0c0,.37.07.71.21,1.02.14.31.32.58.56.81.23.23.5.41.82.53.31.13.64.19.98.19s.67-.06.98-.19.58-.31.82-.53c.24-.23.42-.5.56-.81.14-.31.21-.65.21-1.02s-.07-.71-.21-1.02c-.14-.31-.32-.58-.56-.81s-.51-.41-.82-.53c-.31-.13-.64-.19-.98-.19s-.67.06-.98.19c-.31.13-.58.31-.82.53s-.42.5-.56.81c-.14.31-.21.65-.21,1.02Z"/><path class="cls-1" d="m147.45,10.77V1.51h2.37l4.37,5.66V1.51h2.35v9.26h-2.35l-4.37-5.66v5.66h-2.37Z"/></svg>