<?xml version="1.0" encoding="UTF-8"?><svg id="production" xmlns="http://www.w3.org/2000/svg" width="384" height="48" viewBox="0 0 384 48"><defs><style>.cls-1{stroke-width:0px;}</style></defs><path class="cls-1" d="m18.21,26.72v8.78h-3.19V13.89h3.62c1.77,0,3.11.13,4.01.38.91.25,1.72.73,2.41,1.43,1.21,1.21,1.82,2.74,1.82,4.59,0,1.98-.65,3.55-1.94,4.7-1.3,1.16-3.04,1.74-5.24,1.74h-1.48Zm0-3.02h1.19c2.93,0,4.4-1.15,4.4-3.46s-1.51-3.35-4.53-3.35h-1.05v6.8Z"/><path class="cls-1" d="m33.36,13.89v18.55h6.22v3.07h-9.41V13.89h3.19Z"/><path class="cls-1" d="m56.2,30.25h-9.05l-2.36,5.25h-3.44l10.46-22.97,10.09,22.97h-3.49l-2.22-5.25Zm-1.3-3.07l-3.14-7.35-3.29,7.35h6.42Z"/><path class="cls-1" d="m63.81,35.5l4.45-23.23,7.26,16.8,7.52-16.8,4,23.23h-3.27l-2.04-13.04-6.26,14.04-6.08-14.05-2.27,13.06h-3.3Z"/><path class="cls-1" d="m91.52,35.5V13.89h3.18c1.42,0,2.54.11,3.38.34.85.22,1.57.6,2.15,1.13.59.55,1.06,1.24,1.41,2.06.36.83.53,1.67.53,2.52,0,1.55-.58,2.86-1.74,3.93,1.12.39,2.01,1.08,2.66,2.06.66.97.99,2.1.99,3.39,0,1.69-.58,3.12-1.75,4.28-.7.72-1.49,1.22-2.37,1.5-.96.27-2.16.41-3.6.41h-4.83Zm3.19-12.33h1c1.19,0,2.06-.27,2.61-.8.55-.54.83-1.33.83-2.37s-.28-1.79-.85-2.32c-.57-.53-1.39-.79-2.46-.79h-1.12v6.28Zm0,9.27h1.97c1.44,0,2.5-.29,3.18-.87.71-.62,1.07-1.42,1.07-2.38s-.34-1.72-1.03-2.35c-.67-.62-1.86-.94-3.57-.94h-1.62v6.54Z"/><path class="cls-1" d="m119.77,16.95h-8.48v5.19h8.23v3.06h-8.23v7.22h8.48v3.07h-11.67V13.89h11.67v3.07Z"/><path class="cls-1" d="m139.58,15.05v3.86c-1.84-1.58-3.75-2.37-5.72-2.37-2.17,0-4,.8-5.49,2.39-1.5,1.59-2.25,3.53-2.25,5.82s.75,4.18,2.25,5.74c1.5,1.56,3.33,2.34,5.5,2.34,1.12,0,2.08-.19,2.86-.56.44-.19.89-.44,1.36-.76.47-.32.97-.7,1.49-1.15v3.93c-1.83,1.05-3.74,1.58-5.75,1.58-3.02,0-5.6-1.08-7.74-3.23-2.13-2.17-3.19-4.8-3.19-7.87,0-2.75.89-5.21,2.67-7.36,2.19-2.64,5.03-3.96,8.5-3.96,1.9,0,3.73.53,5.5,1.58Z"/><path class="cls-1" d="m147.39,22.34h9.12v-8.45h3.19v21.61h-3.19v-10.09h-9.12v10.09h-3.19V13.89h3.19v8.45Z"/><path class="cls-1" d="m175.76,34.96h-5.5V13.35h8.75c2.37,0,4.19.63,5.45,1.89,1.26,1.26,1.89,3.04,1.89,5.33s-.63,4.07-1.89,5.33c-1.26,1.26-3.08,1.89-5.45,1.89h-3.25v7.17Zm0-11.7h1.82c2.02,0,3.03-.9,3.03-2.69s-1.01-2.69-3.03-2.69h-1.82v5.39Z"/><path class="cls-1" d="m206.86,34.96h-6.84l-5.25-8.31v8.31h-5.5V13.35h8.55c1.18,0,2.21.18,3.08.53.88.35,1.6.84,2.17,1.45.57.61,1,1.32,1.29,2.12.29.8.43,1.66.43,2.58,0,1.64-.39,2.98-1.16,4-.78,1.02-1.92,1.72-3.44,2.08l6.65,8.86Zm-12.09-11.95h1.04c1.08,0,1.92-.23,2.5-.69.58-.46.87-1.12.87-1.98s-.29-1.52-.87-1.98c-.58-.46-1.41-.69-2.5-.69h-1.04v5.33Z"/><path class="cls-1" d="m207.81,24.15c0-1.61.29-3.1.87-4.49.58-1.39,1.38-2.59,2.41-3.63s2.26-1.84,3.69-2.42c1.43-.58,3-.87,4.73-.87s3.27.29,4.71.87c1.44.58,2.68,1.39,3.72,2.42,1.04,1.03,1.85,2.24,2.43,3.63.58,1.39.87,2.88.87,4.49s-.29,3.1-.87,4.49c-.58,1.39-1.39,2.59-2.43,3.63-1.04,1.03-2.28,1.84-3.72,2.42-1.44.58-3.01.87-4.71.87s-3.3-.29-4.73-.87c-1.43-.58-2.66-1.39-3.69-2.42-1.03-1.03-1.83-2.24-2.41-3.63-.58-1.39-.87-2.88-.87-4.49Zm5.75,0c0,.86.16,1.65.48,2.38.32.73.75,1.36,1.29,1.89.54.54,1.17.95,1.89,1.25s1.48.44,2.29.44,1.57-.15,2.29-.44,1.36-.71,1.91-1.25c.55-.53.99-1.17,1.3-1.89.32-.73.48-1.52.48-2.38s-.16-1.65-.48-2.38c-.32-.73-.75-1.36-1.3-1.89-.55-.54-1.19-.95-1.91-1.25-.72-.3-1.48-.44-2.29-.44s-1.57.15-2.29.44c-.72.3-1.35.71-1.89,1.25-.54.54-.97,1.17-1.29,1.89-.32.73-.48,1.52-.48,2.38Z"/><path class="cls-1" d="m234.71,13.35h8.13c1.44,0,2.79.3,4.05.89,1.26.59,2.36,1.38,3.31,2.36.94.98,1.69,2.13,2.23,3.44s.81,2.68.81,4.11-.27,2.78-.8,4.08c-.53,1.31-1.27,2.46-2.22,3.45-.94.99-2.05,1.79-3.31,2.38-1.26.59-2.62.89-4.08.89h-8.13V13.35Zm5.5,16.85h1.26c.95,0,1.8-.15,2.55-.46.75-.31,1.38-.73,1.89-1.26.51-.53.91-1.17,1.18-1.91.27-.74.41-1.54.41-2.42s-.14-1.66-.42-2.41c-.28-.75-.68-1.39-1.19-1.92-.51-.53-1.15-.96-1.89-1.26-.75-.31-1.59-.46-2.52-.46h-1.26v12.1Z"/><path class="cls-1" d="m262.25,13.35v11.75c0,.63.02,1.28.07,1.94s.19,1.26.42,1.79c.23.54.6.97,1.11,1.3.5.33,1.22.5,2.13.5s1.62-.17,2.12-.5c.5-.33.86-.77,1.11-1.3.24-.53.39-1.13.43-1.79s.07-1.3.07-1.94v-11.75h5.47v12.53c0,3.36-.75,5.82-2.26,7.37s-3.82,2.32-6.94,2.32-5.44-.77-6.96-2.32-2.27-4-2.27-7.37v-12.53h5.5Z"/><path class="cls-1" d="m294.84,20.57c-1.27-1.59-2.84-2.38-4.71-2.38-.82,0-1.58.15-2.29.46-.7.31-1.3.72-1.81,1.25-.5.53-.9,1.15-1.19,1.88-.29.73-.44,1.51-.44,2.35s.15,1.65.44,2.38c.29.73.69,1.36,1.21,1.89.51.54,1.12.96,1.81,1.26.69.31,1.44.46,2.24.46,1.76,0,3.34-.76,4.74-2.29v6.65l-.56.2c-.84.31-1.63.53-2.36.67-.73.14-1.45.21-2.16.21-1.46,0-2.86-.28-4.19-.85s-2.51-1.36-3.53-2.38c-1.02-1.02-1.84-2.24-2.45-3.64-.62-1.4-.93-2.94-.93-4.6s.3-3.19.91-4.57c.61-1.39,1.42-2.58,2.44-3.58,1.02-1,2.2-1.79,3.55-2.35,1.35-.56,2.76-.85,4.23-.85.84,0,1.67.09,2.48.27s1.67.46,2.57.85v6.71Z"/><path class="cls-1" d="m306.33,18.1v16.85h-5.5v-16.85h-4.51v-4.76h14.53v4.76h-4.52Z"/><path class="cls-1" d="m318.79,13.35v21.61h-5.5V13.35h5.5Z"/><path class="cls-1" d="m322.26,24.15c0-1.61.29-3.1.87-4.49.58-1.39,1.38-2.59,2.41-3.63s2.26-1.84,3.69-2.42c1.43-.58,3-.87,4.73-.87s3.27.29,4.71.87c1.44.58,2.68,1.39,3.72,2.42,1.04,1.03,1.85,2.24,2.43,3.63.58,1.39.87,2.88.87,4.49s-.29,3.1-.87,4.49c-.58,1.39-1.39,2.59-2.43,3.63-1.04,1.03-2.28,1.84-3.72,2.42-1.44.58-3.01.87-4.71.87s-3.3-.29-4.73-.87c-1.43-.58-2.66-1.39-3.69-2.42-1.03-1.03-1.83-2.24-2.41-3.63-.58-1.39-.87-2.88-.87-4.49Zm5.75,0c0,.86.16,1.65.48,2.38.32.73.75,1.36,1.29,1.89.54.54,1.17.95,1.89,1.25s1.48.44,2.29.44,1.57-.15,2.29-.44,1.36-.71,1.91-1.25c.55-.53.99-1.17,1.3-1.89.32-.73.48-1.52.48-2.38s-.16-1.65-.48-2.38c-.32-.73-.75-1.36-1.3-1.89-.55-.54-1.19-.95-1.91-1.25-.72-.3-1.48-.44-2.29-.44s-1.57.15-2.29.44c-.72.3-1.35.71-1.89,1.25-.54.54-.97,1.17-1.29,1.89-.32.73-.48,1.52-.48,2.38Z"/><path class="cls-1" d="m349.16,34.96V13.35h5.5l10.15,13.21v-13.21h5.47v21.61h-5.47l-10.15-13.21v13.21h-5.5Z"/></svg>