<?xml version="1.0" encoding="UTF-8"?><svg id="Layer_1" xmlns="http://www.w3.org/2000/svg" width="890" height="90" viewBox="0 0 890 90"><defs><style>.cls-1{stroke-width:0px;}</style></defs><path class="cls-1" d="m15.2,44.27v22.04H7.01V12.03h9.28c4.55,0,7.98.32,10.3.95,2.34.63,4.41,1.83,6.19,3.59,3.12,3.05,4.68,6.89,4.68,11.53,0,4.97-1.66,8.91-4.99,11.81-3.33,2.91-7.82,4.36-13.46,4.36h-3.8Zm0-7.59h3.06c7.52,0,11.29-2.89,11.29-8.68s-3.88-8.4-11.64-8.4h-2.71v17.09Z"/><path class="cls-1" d="m54.08,12.03v46.58h15.96v7.7h-24.15V12.03h8.19Z"/><path class="cls-1" d="m112.72,53.13h-23.24l-6.05,13.18h-8.82l26.86-57.69,25.91,57.69h-8.96l-5.7-13.18Zm-3.34-7.7l-8.05-18.46-8.44,18.46h16.49Z"/><path class="cls-1" d="m132.27,66.31l11.43-58.36,18.63,42.19,19.3-42.19,10.27,58.36h-8.4l-5.24-32.77-16.07,35.26-15.61-35.3-5.84,32.8h-8.47Z"/><path class="cls-1" d="m203.39,66.31V12.03h8.16c3.63,0,6.53.28,8.68.84,2.18.56,4.02,1.51,5.52,2.85,1.52,1.38,2.73,3.11,3.62,5.17.91,2.09,1.37,4.2,1.37,6.33,0,3.89-1.49,7.18-4.46,9.88,2.88.98,5.16,2.71,6.82,5.17,1.69,2.44,2.53,5.27,2.53,8.51,0,4.24-1.5,7.83-4.5,10.76-1.8,1.81-3.83,3.06-6.08,3.76-2.46.68-5.54,1.02-9.25,1.02h-12.41Zm8.19-30.97h2.57c3.05,0,5.28-.67,6.7-2.02,1.42-1.35,2.13-3.33,2.13-5.96s-.73-4.49-2.18-5.82c-1.45-1.32-3.56-1.99-6.33-1.99h-2.88v15.79Zm0,23.27h5.06c3.7,0,6.42-.73,8.16-2.18,1.83-1.57,2.74-3.56,2.74-5.98s-.88-4.31-2.64-5.91c-1.71-1.57-4.77-2.36-9.18-2.36h-4.15v16.42Z"/><path class="cls-1" d="m275.92,19.73h-21.76v13.04h21.13v7.7h-21.13v18.14h21.76v7.7h-29.95V12.03h29.95v7.7Z"/><path class="cls-1" d="m326.79,14.95v9.7c-4.73-3.96-9.63-5.94-14.7-5.94-5.58,0-10.28,2-14.1,6.01-3.84,3.98-5.77,8.86-5.77,14.62s1.92,10.5,5.77,14.41c3.84,3.91,8.55,5.87,14.13,5.87,2.88,0,5.33-.47,7.35-1.41,1.12-.47,2.29-1.1,3.5-1.9,1.21-.8,2.48-1.76,3.81-2.88v9.88c-4.69,2.65-9.61,3.97-14.77,3.97-7.76,0-14.38-2.71-19.86-8.12-5.46-5.46-8.19-12.05-8.19-19.76,0-6.91,2.29-13.08,6.86-18.49,5.62-6.63,12.9-9.95,21.83-9.95,4.88,0,9.59,1.32,14.13,3.97Z"/><path class="cls-1" d="m346.83,33.27h23.41V12.03h8.19v54.28h-8.19v-25.35h-23.41v25.35h-8.19V12.03h8.19v21.23Z"/><path class="cls-1" d="m421.85,44.27v22.04h-8.19V12.03h9.28c4.55,0,7.98.32,10.3.95,2.34.63,4.41,1.83,6.19,3.59,3.12,3.05,4.68,6.89,4.68,11.53,0,4.97-1.66,8.91-4.99,11.81-3.33,2.91-7.82,4.36-13.46,4.36h-3.8Zm0-7.59h3.06c7.52,0,11.29-2.89,11.29-8.68s-3.88-8.4-11.64-8.4h-2.71v17.09Z"/><path class="cls-1" d="m470.93,43.18l16.8,23.13h-10.02l-15.5-22.22h-1.48v22.22h-8.19V12.03h9.6c7.17,0,12.35,1.35,15.54,4.04,3.52,3,5.27,6.96,5.27,11.88,0,3.84-1.1,7.15-3.3,9.91-2.2,2.77-5.11,4.54-8.72,5.31Zm-10.2-6.22h2.6c7.76,0,11.64-2.96,11.64-8.89,0-5.55-3.77-8.33-11.32-8.33h-2.92v17.23Z"/><path class="cls-1" d="m491.95,38.93c0-7.64,2.8-14.2,8.4-19.69,5.58-5.48,12.28-8.23,20.11-8.23s14.37,2.77,19.9,8.3c5.55,5.53,8.33,12.18,8.33,19.93s-2.79,14.43-8.37,19.86c-5.6,5.46-12.36,8.19-20.29,8.19-7.01,0-13.3-2.43-18.88-7.28-6.14-5.37-9.21-12.4-9.21-21.09Zm8.26.11c0,6,2.02,10.93,6.05,14.8,4.01,3.87,8.64,5.8,13.89,5.8,5.7,0,10.5-1.97,14.41-5.91,3.91-3.98,5.87-8.84,5.87-14.55s-1.93-10.64-5.8-14.55c-3.84-3.94-8.6-5.91-14.27-5.91s-10.42,1.97-14.31,5.91c-3.89,3.89-5.84,8.7-5.84,14.41Z"/><path class="cls-1" d="m558.99,66.31V12.03h11.39c5.46,0,9.77.54,12.94,1.62,3.4,1.05,6.48,2.85,9.25,5.38,5.6,5.11,8.4,11.82,8.4,20.14s-2.92,15.09-8.75,20.25c-2.93,2.58-6,4.37-9.21,5.38-3,1.01-7.25,1.51-12.76,1.51h-11.25Zm8.19-7.7h3.69c3.68,0,6.74-.39,9.18-1.16,2.44-.82,4.64-2.12,6.61-3.9,4.03-3.68,6.05-8.47,6.05-14.38s-1.99-10.78-5.98-14.48c-3.59-3.3-8.87-4.96-15.86-4.96h-3.69v38.88Z"/><path class="cls-1" d="m619.46,12.03v32.7c0,4.66.76,8.07,2.29,10.23,2.27,3.12,5.47,4.68,9.6,4.68s7.36-1.56,9.63-4.68c1.52-2.09,2.29-5.5,2.29-10.23V12.03h8.19v34.95c0,5.72-1.78,10.43-5.34,14.13-4.01,4.13-8.93,6.19-14.77,6.19s-10.75-2.06-14.73-6.19c-3.56-3.7-5.34-8.41-5.34-14.13V12.03h8.19Z"/><path class="cls-1" d="m704.58,14.95v9.7c-4.73-3.96-9.63-5.94-14.7-5.94-5.58,0-10.28,2-14.1,6.01-3.84,3.98-5.77,8.86-5.77,14.62s1.92,10.5,5.77,14.41c3.84,3.91,8.55,5.87,14.13,5.87,2.88,0,5.33-.47,7.35-1.41,1.12-.47,2.29-1.1,3.5-1.9,1.21-.8,2.48-1.76,3.81-2.88v9.88c-4.69,2.65-9.61,3.97-14.77,3.97-7.76,0-14.38-2.71-19.86-8.12-5.46-5.46-8.19-12.05-8.19-19.76,0-6.91,2.29-13.08,6.86-18.49,5.62-6.63,12.9-9.95,21.83-9.95,4.88,0,9.59,1.32,14.13,3.97Z"/><path class="cls-1" d="m729.89,19.73v46.58h-8.19V19.73h-12.48v-7.7h33.12v7.7h-12.45Z"/><path class="cls-1" d="m757.84,12.03v54.28h-8.19V12.03h8.19Z"/><path class="cls-1" d="m768.17,38.93c0-7.64,2.8-14.2,8.4-19.69,5.58-5.48,12.28-8.23,20.11-8.23s14.37,2.77,19.9,8.3c5.55,5.53,8.33,12.18,8.33,19.93s-2.79,14.43-8.37,19.86c-5.6,5.46-12.36,8.19-20.29,8.19-7.01,0-13.3-2.43-18.88-7.28-6.14-5.37-9.21-12.4-9.21-21.09Zm8.26.11c0,6,2.02,10.93,6.05,14.8,4.01,3.87,8.64,5.8,13.89,5.8,5.7,0,10.5-1.97,14.41-5.91,3.91-3.98,5.87-8.84,5.87-14.55s-1.93-10.64-5.8-14.55c-3.84-3.94-8.6-5.91-14.27-5.91s-10.42,1.97-14.31,5.91c-3.89,3.89-5.84,8.7-5.84,14.41Z"/><path class="cls-1" d="m835.22,66.31V8.34l39.59,41.41V12.03h8.19v57.59l-39.59-41.31v38h-8.19Z"/></svg>